<svg xmlns="http://www.w3.org/2000/svg" viewBox="0 0 644 490.8"><defs><style>.cls-1{fill:#f6fbf8}.cls-2{fill:#c3c2c7}.cls-5{fill:#fafdff}.cls-7{fill:#ccdcd9}.cls-9{fill:#7c8ca1}.cls-10{fill:#c6e6d7}.cls-11{fill:#def0e7}.cls-14{fill:#aac6c2}.cls-15{fill:#c4d9d9}</style></defs><g id="Layer_2" data-name="Layer 2"><g id="cartDesaturated-wheelsSep"><g id="treeSmall"><path class="cls-1" d="M95.87 322.76v2.51a16.82 16.82 0 00-2 .12c-6.28.79-10.46 3.92-12.78 9.59a24.16 24.16 0 00-1.73 8.77 5 5 0 01-3.08 4.78 24.62 24.62 0 00-14.44 16.31c-1.79 6.56-.77 13.26 2.73 17.93 5.56 7.42 18 8.22 23.15 8.22h.73v-19.63l-12.26-6.89a2.5 2.5 0 012.46-4.36l9.8 5.52V350.8a2.5 2.5 0 015 0v31.69l12.89-7.08a2.49 2.49 0 013.39 1 2.5 2.5 0 01-1 3.4l-15.29 8.39v2.74c1.21.06 2.39.09 3.53.09 17.41 0 27-6.85 27-19.29 0-9.11-11.86-15.09-12-15.15a5 5 0 01-2.33-6.66c2.28-4.77 1.43-12.21-2-17.7-2-3.17-5.67-7-11.79-7v-2.51"/><path class="cls-2" d="M95.87 320.26a21.26 21.26 0 00-2.6.17c-19.58 2.45-18.89 23.48-18.89 23.48-18.38 7.66-23 29.61-13.79 41.86C67.36 394.8 81 396 87.74 396h.73v-5h-.73c-5.1 0-17.59-.8-23.15-8.22-3.5-4.67-4.52-11.37-2.73-17.93a24.62 24.62 0 0114.44-16.32 5 5 0 003.08-4.78 24.16 24.16 0 011.73-8.75c2.32-5.67 6.5-8.8 12.78-9.59a16.82 16.82 0 012-.12v-5m0 0v5c6.12 0 9.79 3.78 11.79 7 3.46 5.49 4.31 12.93 2 17.7a5 5 0 002.33 6.66c.12.06 12 6 12 15.15 0 12.44-9.59 19.29-27 19.29-1.14 0-2.32 0-3.53-.09v5c1.21.06 2.39.09 3.53.09 24.84 0 32-12.81 32-24.29 0-12.5-14.8-19.65-14.8-19.65 5.34-11.17-1.79-31.82-18.33-31.82"/><path class="cls-2" d="M91 348.3a2.5 2.5 0 00-2.5 2.5v14.83l3.15 1.77a2.5 2.5 0 01-1.23 4.68 2.47 2.47 0 01-1.22-.32l-.7-.4v44.79a2.5 2.5 0 005 0v-28l-.18.1a2.46 2.46 0 01-1.2.3 2.5 2.5 0 01-1.21-4.69l2.59-1.41V350.8a2.5 2.5 0 00-2.5-2.5"/><path class="cls-2" d="M77.44 359.79a2.5 2.5 0 00-1.23 4.68l12.26 6.89.7.4a2.47 2.47 0 001.22.32 2.5 2.5 0 001.23-4.68l-3.15-1.77-9.8-5.52a2.48 2.48 0 00-1.23-.32M107.56 375.1a2.47 2.47 0 00-1.2.31l-12.89 7.08-2.59 1.41a2.5 2.5 0 001.21 4.69 2.46 2.46 0 001.2-.3l.18-.1 15.29-8.39a2.5 2.5 0 00-1.2-4.7"/></g><g id="treeLarge"><path class="cls-1" d="M557.72 270.23v2.5a28.36 28.36 0 00-3.41.21c-10.54 1.32-17.89 6.79-21.86 16.25a40.4 40.4 0 00-3 15 5 5 0 01-3.08 4.77A40.84 40.84 0 00502.43 336c-3 11-1.24 22.22 4.68 30.12 9.35 12.46 29.71 13.81 38 13.81h2.49V346L528 335a2.5 2.5 0 011.23-4.68 2.42 2.42 0 011.22.32l17.22 9.69V315a2.5 2.5 0 015 0v51.35l22-12.06a2.49 2.49 0 013.39 1 2.5 2.5 0 01-1 3.4l-24 13.14a2.35 2.35 0 01-.43.19v7.77c2.34.14 4.64.21 6.83.21 16.18 0 28.21-3.62 35.75-10.76 7.27-6.88 8.79-15.67 8.79-21.83 0-15.94-19.9-25.83-20.1-25.93a5 5 0 01-2.33-6.65c3.91-8.18 2.53-20.81-3.28-30-2.84-4.5-9.28-12-20.57-12v-2.5"/><path class="cls-2" d="M557.72 267.73a32.89 32.89 0 00-4 .25c-30.3 3.79-29.24 36.35-29.24 36.35-28.45 11.86-35.56 45.83-21.34 64.8 10.48 14 31.62 15.81 42 15.81h2.49v-5h-2.49c-8.32 0-28.68-1.35-38-13.81-5.92-7.9-7.67-19.16-4.68-30.12A40.84 40.84 0 01526.37 309a5 5 0 003.08-4.77 40.4 40.4 0 013-15c4-9.46 11.32-14.93 21.86-16.25a28.36 28.36 0 013.41-.21v-5m0 0v5c11.29 0 17.73 7.55 20.57 12 5.81 9.23 7.19 21.86 3.28 30a5 5 0 002.33 6.65c.2.1 20.1 10 20.1 25.93 0 6.16-1.52 15-8.79 21.83-7.54 7.14-19.57 10.76-35.75 10.76-2.19 0-4.49-.07-6.83-.21v5c2.37.13 4.64.2 6.83.2C597.92 385 609 365.17 609 347.4c0-19.4-22.92-30.4-22.92-30.4 8.27-17.3-2.77-49.25-28.36-49.25"/><path class="cls-2" d="M550.13 312.5a2.5 2.5 0 00-2.5 2.5v25.29l2.84 1.59a2.5 2.5 0 01-2.46 4.36l-.38-.21v70.12a2.5 2.5 0 005 0V372a2.5 2.5 0 01-3-1.18 2.5 2.5 0 011-3.39l2-1.09V315a2.5 2.5 0 00-2.5-2.5"/><path class="cls-2" d="M529.19 330.28A2.5 2.5 0 00528 335l19.63 11 .38.21a2.48 2.48 0 001.23.32 2.5 2.5 0 001.23-4.68l-2.84-1.59-17.22-9.69a2.42 2.42 0 00-1.22-.32M575.81 354a2.47 2.47 0 00-1.2.31l-22 12.06-2 1.09a2.5 2.5 0 001.2 4.69 2.53 2.53 0 00.77-.12 2.35 2.35 0 00.43-.19l24-13.14a2.5 2.5 0 00-1.2-4.7"/></g><path id="blob" d="M276.5 427.65a2.5 2.5 0 010-5h92a2.5 2.5 0 010 5h-92m-35.18-33.52a27.65 27.65 0 0122.24 11.12 2.39 2.39 0 01.21.34 27.82 27.82 0 01-39.06 38.72l-.13-.09a27.82 27.82 0 0116.7-50.09m162.7 0a27.63 27.63 0 0122.23 11.12 1.79 1.79 0 01.22.34 27.82 27.82 0 01-39.07 38.72l-.12-.09A27.82 27.82 0 01404 394.13m17.09-243.27a2.5 2.5 0 01-1.37-4.6l20.77-13.52a2.46 2.46 0 011.36-.41 2.5 2.5 0 011.37 4.6l-20.77 13.52a2.43 2.43 0 01-1.36.41m-11.34-7.61a2.44 2.44 0 01-.88-.16 2.49 2.49 0 01-1.46-3.22l8.72-23.2a2.5 2.5 0 114.68 1.76l-8.72 23.2a2.49 2.49 0 01-2.34 1.62m-14.2-.24a2.5 2.5 0 01-2.43-1.9l-5.9-24.11a2.51 2.51 0 011.83-3 2.46 2.46 0 01.6-.07 2.49 2.49 0 012.42 1.9l5.93 24.08a2.51 2.51 0 01-1.83 3 2.46 2.46 0 01-.6.07m15.14-61.6c-16.76 0-36.33 2.18-59.11 6.91-84 17.42-145.21 41-186 69.89l2.19 9.94h300.67a2.54 2.54 0 012 .95 2.57 2.57 0 01.5 2.14L464 202.63a2.62 2.62 0 01-.12.57l-20.65 93.57a2.54 2.54 0 01-1.05 4.74l-6.54 29.67a2.55 2.55 0 01-2.48 2h-229l7.21 32.65a8 8 0 015.22-1.93H420.8a8.08 8.08 0 018.07 8.08v1.5a8.08 8.08 0 01-8.07 8.08H216.58a8.09 8.09 0 01-7.91-6.45 2.47 2.47 0 01-.75-1.3l-9.4-42.6-17.58-79.67a2.36 2.36 0 01-.12-.54l-.66-3-9.55-43.23a2.59 2.59 0 01-.9-4.1l-8.64-39.16C76.66 224.24 86 311 166.35 412.19q4.34 5.44 8.81 10.46h29.34a2.5 2.5 0 010 5h-24.75c43.18 45.62 95.59 63.15 144.19 63.15 61.81 0 117.49-28.32 140.31-63.15H439.5a2.5 2.5 0 010-5h27.78c7.19-13 9.81-26.66 6.54-40-16.42-67.26 110.51-301.24-63.11-301.24" fill="#eef9fe"/><g id="cart"><path d="M232.5 301.51h-35.33l5.83 26.58h33.31l-3.84-26.58m40.92 0h-35.76l3.84 26.58h33.85l-1.9-26.58m40.86 0h-35.77l1.9 26.58h33.87v-26.58m40.94 0h-35.86v26.58h33.88l2-26.58m40.89 0h-35.81l-2 26.58h33.84l3.93-26.58m40.88 0h-35.73l-3.93 26.58h33.82l5.87-26.58M225.52 253.2h-39l9.54 43.23h35.71l-6.24-43.23m44.45 0h-39.33l6.25 43.23h36.15L270 253.2m44.31 0h-39.25l3.09 43.23h36.13V253.2m44.55 0h-39.47v43.23h36.24l3.23-43.23m44.41 0h-39.31l-3.23 43.23h36.16l6.38-43.23m44.41 0h-39.27L402 296.43h36.12l9.54-43.23m-229.13-48.31h-42.68l9.54 43.23h39.39l-6.25-43.23m48 0h-42.86l6.25 43.23h39.68l-3.09-43.23m47.77 0h-42.67l3.09 43.23h39.58v-43.23m48.16 0h-43.08v43.23h39.85l3.23-43.23m47.94 0h-42.84l-3.23 43.23H404l6.38-43.23m47.93 0h-42.8l-6.38 43.23h39.64l9.54-43.23M214 173.23h-45.1l4.75 21.55 1.11 5h43.04l-3.8-26.55m50.29 0h-45.2l3.85 26.58h43.21l-1.9-26.58m50 0h-44.9l1.9 26.58h43v-26.58m50.52 0h-45.41v26.58h43.46l2-26.58m50.26 0H369.9l-2 26.58h43.21l3.93-26.58m50.24 0h-45.09l-3.92 26.58h43.16l5.87-26.58" fill="#fccf58"/><path class="cls-5" d="M443.24 296.77l-1.05 4.74a2.54 2.54 0 001.05-4.74M180.81 251a2.36 2.36 0 00.12.54l-.12-.54M464 202.63l-.12.57a2.62 2.62 0 00.12-.57m-294.31-2a2.59 2.59 0 00.9 4.1l-.9-4.1m67.2 95.81l-6.25-43.23H270l3.08 43.23H236.9m41.25 0l-3.09-43.23h39.22v43.23h-36.13m41.21 0V253.2h39.47l-3.23 43.23h-36.24m41.34 0l3.23-43.23h39.31l-6.38 43.23H360.7m-130.78-48.31l-6.25-43.23h42.84l3.09 43.23h-39.68m44.78 0l-3.09-43.23h42.67v43.23H274.7m44.66 0v-43.23h43.08l-3.23 43.23h-39.85m44.95 0l3.23-43.23h42.84L404 248.12h-39.69m55.88-74.89h-5.13l-3.93 26.58h-43.21l2-26.58h-5.1l-2 26.58h-43.46v-26.58h-5.08v26.58h-43l-1.9-26.58h-5.1l1.9 26.58h-43.24l-3.85-26.58H214l3.84 26.58h-43.12l1.13 5.08h42.68l6.25 43.23h-39.39l1.12 5.08h39l6.24 43.23h-35.7l1.12 5.08h35.33l3.84 26.58h5.13l-3.84-26.58h35.79l1.9 26.58h5.09l-1.9-26.58h35.77v26.58h5.08v-26.58h35.86l-2 26.58h5.1l2-26.58h35.79l-3.93 26.58h5.13l3.93-26.58H437l1.12-5.08H402l6.39-43.23h39.27l1.12-5.08h-39.65l6.38-43.23h42.8l1.12-5.08h-43.16l3.92-26.58m-153.51-5.08"/><path d="M152.17 134.45h-32.92a3 3 0 00-3 3V139a3 3 0 003 3h32.92a3 3 0 003-3v-1.51a3 3 0 00-3-3" fill="#f59390"/><path class="cls-7" d="M420.8 369H216.58a3 3 0 00-3 3v1.5a3 3 0 003 3H420.8a3 3 0 003-3V372a3 3 0 00-3-3"/><path d="M119.25 141.94a3 3 0 01-3-3v-1.51a3 3 0 013-3h32.92a3 3 0 013 3V139a3 3 0 01-3 3h-32.92m32.92-12.57h-32.92a8.09 8.09 0 00-8.08 8.07v1.5a8.09 8.09 0 008.08 8.07h32.92a8 8 0 005.27-2l3.62 16.4c1.47-1.09 3-2.17 4.49-3.25l-4.79-21.67a2.46 2.46 0 00-.85-1.39 8.08 8.08 0 00-7.74-5.78" fill="#7e8da0"/><path class="cls-9" d="M216.58 376.47a3 3 0 01-3-3V372a3 3 0 013-3H420.8a3 3 0 013 3v1.5a3 3 0 01-3 3H216.58m203.61-203.27h45.11l-5.87 26.58-1.12 5.08-9.54 43.23-1.12 5.08-9.54 43.23-1.11 5.08-5.86 26.58H203l-5.86-26.58-1.12-5.08-9.54-43.23-1.12-5.08-9.54-43.23-1.13-5.08-1.11-5-4.75-21.55h251.36m-254.64-15c-1.53 1.08-3 2.16-4.49 3.25l8.64 39.16.9 4.1 9.55 43.23.66 3 .12.54 17.58 79.67 9.4 42.6a2.47 2.47 0 00.75 1.3 8.09 8.09 0 007.91 6.45H420.8a8.08 8.08 0 008.07-8.08V372a8.08 8.08 0 00-8.07-8.08H216.58a8 8 0 00-5.22 1.93l-7.21-32.65h229a2.55 2.55 0 002.48-2l6.54-29.67 1.05-4.74 20.65-93.57.12-.57 6.93-31.39a2.57 2.57 0 00-.5-2.14 2.54 2.54 0 00-2-.95H167.74l-2.19-9.94"/></g><g id="horizon"><path class="cls-9" d="M204.5 422.65H2.5a2.5 2.5 0 000 5h202a2.5 2.5 0 000-5zM641.5 422.65h-202a2.5 2.5 0 000 5h202a2.5 2.5 0 000-5zM368.5 422.65h-92a2.5 2.5 0 000 5h92a2.5 2.5 0 000-5"/></g><g id="pebbles"><path class="cls-10" d="M596.5 456.65h-12a2.5 2.5 0 000 5h12a2.5 2.5 0 000-5M511.5 448.65h-20a2.5 2.5 0 000 5h20a2.5 2.5 0 000-5"/><path class="cls-11" d="M137.5 457.65h-20a2.5 2.5 0 000 5h20a2.5 2.5 0 000-5M56.5 443.65h-12a2.5 2.5 0 000 5h12a2.5 2.5 0 000-5"/></g><path id="blink3" class="cls-9" d="M441.87 132.33a2.46 2.46 0 00-1.36.41l-20.77 13.52a2.5 2.5 0 001.37 4.6 2.43 2.43 0 001.36-.41l20.77-13.52a2.5 2.5 0 00-1.37-4.6"/><path id="blink2" class="cls-9" d="M418.49 115.05a2.51 2.51 0 00-2.34 1.62l-8.72 23.2a2.49 2.49 0 001.46 3.22 2.44 2.44 0 00.88.16 2.49 2.49 0 002.34-1.62l8.72-23.2a2.49 2.49 0 00-2.34-3.38"/><path id="blink1" class="cls-9" d="M389.65 113.94a2.46 2.46 0 00-.6.07 2.51 2.51 0 00-1.83 3l5.92 24.07a2.5 2.5 0 002.43 1.9 2.46 2.46 0 00.6-.07 2.51 2.51 0 001.83-3l-5.93-24.07a2.49 2.49 0 00-2.42-1.9"/><path id="cloudLarge" d="M559 0c-17.89 0-30.79 20.9-30.79 20.9-1.13-.08-2.22-.11-3.25-.11-24.96 0-20.64 19.87-18.96 25.39a2 2 0 001.9 1.42l99.26.54A2 2 0 00609 47c10.88-23.36-15.62-24-18.79-24h-.31C579 5.68 568.28 0 559 0" fill="#e6efed"/><path id="cloudSmall" d="M85 42.07c-14.15 0-24.34 16.53-24.34 16.53-.89-.06-1.73-.09-2.54-.09-19.31 0-16.51 15.29-15.12 20.15a2 2 0 001.93 1.46h77.9a2 2 0 001.84-1.2c8.26-18.19-12.48-18.73-15-18.73h-.25C100.79 46.56 92.34 42.07 85 42.07" fill="#f0f5f3"/><g id="wheelBack"><path class="cls-7" d="M241.62 434a11.29 11.29 0 1111.29-11.29A11.29 11.29 0 01241.62 434m5-29a22.74 22.74 0 00-18.41 36.16A22.74 22.74 0 00260 409.28a22.5 22.5 0 00-13.33-4.28"/><path class="cls-5" d="M241.62 411.41a11.29 11.29 0 1011.29 11.29 11.3 11.3 0 00-11.29-11.29"/><path class="cls-14" d="M241.65 400a22.81 22.81 0 00-22.76 22.78c0 .65 0 1.3.08 1.95A27.91 27.91 0 01243.58 400c-.64-.06-1.28-.09-1.93-.09"/><path class="cls-14" d="M241.62 400a22.75 22.75 0 00-13.36 41.16A22.75 22.75 0 01260 409.28a22.72 22.72 0 00-16.4-9.24 27.91 27.91 0 00-24.6 24.64c-.06-.65-.08-1.3-.08-1.95A22.81 22.81 0 01241.65 400"/><path class="cls-9" d="M228.26 441.11A22.75 22.75 0 01241.62 400c.65 0 1.29 0 1.93.09a22.75 22.75 0 11-15.32 41.07m13.36-46.24a27.87 27.87 0 00-27.83 27.83 28.2 28.2 0 00.9 7.05 27.83 27.83 0 1027-34.88"/><path class="cls-15" d="M214.69 429.75A27.72 27.72 0 00224.93 445l.12.09a27.92 27.92 0 01-10.36-15.3m27-34.88a27.81 27.81 0 0122.47 11.46 1.79 1.79 0 00-.22-.34 27.65 27.65 0 00-22.23-11.12"/></g><g id="wheelFront"><path class="cls-7" d="M404.32 434a11.29 11.29 0 1111.29-11.29A11.29 11.29 0 01404.32 434m5-29A22.74 22.74 0 00391 441.11a22.74 22.74 0 0031.72-31.83 22.51 22.51 0 00-13.36-4.28"/><path class="cls-5" d="M404.32 411.41a11.29 11.29 0 1011.29 11.29 11.3 11.3 0 00-11.29-11.29"/><path class="cls-14" d="M404.34 400a22.82 22.82 0 00-22.76 22.78c0 .65 0 1.3.08 1.95A27.93 27.93 0 01406.28 400c-.64-.06-1.29-.09-1.94-.09"/><path class="cls-15" d="M377.33 429.51A27.66 27.66 0 00387.62 445a.51.51 0 00.13.09 27.86 27.86 0 01-10.42-15.54m27-34.64a27.85 27.85 0 0122.48 11.46c-.07-.11-.14-.23-.22-.34a27.66 27.66 0 00-22.24-11.12"/><path class="cls-14" d="M404.32 400A22.75 22.75 0 00391 441.11a22.75 22.75 0 0131.72-31.83 22.72 22.72 0 00-16.4-9.24 27.93 27.93 0 00-24.62 24.64c-.05-.65-.08-1.3-.08-1.95A22.82 22.82 0 01404.34 400"/><path class="cls-9" d="M391 441.11A22.75 22.75 0 01404.32 400c.65 0 1.3 0 1.94.09A22.75 22.75 0 11391 441.11m13.36-46.24a27.84 27.84 0 1022.5 11.46 27.86 27.86 0 00-22.5-11.46"/></g></g></g></svg>